<mxfile host="app.diagrams.net" agent="Mozilla/5.0 (Windows NT 10.0; Win64; x64) AppleWebKit/537.36 (KHTML, like Gecko) Chrome/130.0.0.0 YaBrowser/24.12.0.0 Safari/537.36" version="25.0.3">
  <diagram name="Страница — 1" id="lp9VnfLBmj4HYotBcLrf">
    <mxGraphModel dx="1284" dy="701" grid="1" gridSize="10" guides="1" tooltips="1" connect="1" arrows="1" fold="1" page="1" pageScale="1" pageWidth="827" pageHeight="1169" math="0" shadow="0">
      <root>
        <mxCell id="0" />
        <mxCell id="1" parent="0" />
        <mxCell id="vvqf3th2D5cChJPoauMC-3" style="edgeStyle=orthogonalEdgeStyle;rounded=0;orthogonalLoop=1;jettySize=auto;html=1;" parent="1" source="vvqf3th2D5cChJPoauMC-1" target="vvqf3th2D5cChJPoauMC-7" edge="1">
          <mxGeometry relative="1" as="geometry">
            <mxPoint x="410" y="220" as="targetPoint" />
          </mxGeometry>
        </mxCell>
        <mxCell id="vvqf3th2D5cChJPoauMC-1" value="Начало" style="ellipse;whiteSpace=wrap;html=1;aspect=fixed;" parent="1" vertex="1">
          <mxGeometry x="370" y="40" width="80" height="80" as="geometry" />
        </mxCell>
        <mxCell id="vvqf3th2D5cChJPoauMC-4" value="" style="endArrow=none;dashed=1;html=1;rounded=0;" parent="1" edge="1">
          <mxGeometry width="50" height="50" relative="1" as="geometry">
            <mxPoint x="410" y="150" as="sourcePoint" />
            <mxPoint x="530" y="150" as="targetPoint" />
          </mxGeometry>
        </mxCell>
        <mxCell id="vvqf3th2D5cChJPoauMC-5" value="" style="endArrow=none;html=1;rounded=0;" parent="1" edge="1">
          <mxGeometry width="50" height="50" relative="1" as="geometry">
            <mxPoint x="650" y="200" as="sourcePoint" />
            <mxPoint x="650" y="90" as="targetPoint" />
            <Array as="points">
              <mxPoint x="530" y="200" />
              <mxPoint x="530" y="90" />
            </Array>
          </mxGeometry>
        </mxCell>
        <mxCell id="vvqf3th2D5cChJPoauMC-6" value="#include &lt;cmath&gt;&#xa;#include &lt;iostream&gt;&#xa;#include &lt;clocale&gt;&#xa;using namespace std;" style="text;whiteSpace=wrap;" parent="1" vertex="1">
          <mxGeometry x="540" y="110" width="140" height="70" as="geometry" />
        </mxCell>
        <mxCell id="vvqf3th2D5cChJPoauMC-9" style="edgeStyle=orthogonalEdgeStyle;rounded=0;orthogonalLoop=1;jettySize=auto;html=1;" parent="1" source="vvqf3th2D5cChJPoauMC-7" target="so6eHlexY9PvJ19jEkvu-1" edge="1">
          <mxGeometry relative="1" as="geometry">
            <mxPoint x="410" y="320" as="targetPoint" />
          </mxGeometry>
        </mxCell>
        <mxCell id="vvqf3th2D5cChJPoauMC-7" value="int factorial(int n)" style="shape=process;whiteSpace=wrap;html=1;backgroundOutline=1;" parent="1" vertex="1">
          <mxGeometry x="340" y="230" width="140" height="60" as="geometry" />
        </mxCell>
        <mxCell id="vvqf3th2D5cChJPoauMC-16" value="{" style="text;html=1;align=center;verticalAlign=middle;resizable=0;points=[];autosize=1;strokeColor=none;fillColor=none;" parent="1" vertex="1">
          <mxGeometry x="375" y="288" width="30" height="30" as="geometry" />
        </mxCell>
        <mxCell id="vvqf3th2D5cChJPoauMC-28" style="edgeStyle=orthogonalEdgeStyle;rounded=0;orthogonalLoop=1;jettySize=auto;html=1;" parent="1" source="vvqf3th2D5cChJPoauMC-27" target="vvqf3th2D5cChJPoauMC-29" edge="1">
          <mxGeometry relative="1" as="geometry">
            <mxPoint x="397.5" y="852" as="targetPoint" />
          </mxGeometry>
        </mxCell>
        <mxCell id="vvqf3th2D5cChJPoauMC-27" value="float s(int n, float x)" style="shape=process;whiteSpace=wrap;html=1;backgroundOutline=1;" parent="1" vertex="1">
          <mxGeometry x="327.5" y="710" width="140" height="60" as="geometry" />
        </mxCell>
        <mxCell id="vvqf3th2D5cChJPoauMC-30" style="edgeStyle=orthogonalEdgeStyle;rounded=0;orthogonalLoop=1;jettySize=auto;html=1;" parent="1" source="vvqf3th2D5cChJPoauMC-29" target="vvqf3th2D5cChJPoauMC-31" edge="1">
          <mxGeometry relative="1" as="geometry">
            <mxPoint x="267.5" y="882" as="targetPoint" />
          </mxGeometry>
        </mxCell>
        <mxCell id="vvqf3th2D5cChJPoauMC-32" style="edgeStyle=orthogonalEdgeStyle;rounded=0;orthogonalLoop=1;jettySize=auto;html=1;" parent="1" source="vvqf3th2D5cChJPoauMC-29" target="vvqf3th2D5cChJPoauMC-33" edge="1">
          <mxGeometry relative="1" as="geometry">
            <mxPoint x="537.5" y="902" as="targetPoint" />
          </mxGeometry>
        </mxCell>
        <mxCell id="vvqf3th2D5cChJPoauMC-29" value="if (n == 0)" style="rhombus;whiteSpace=wrap;html=1;" parent="1" vertex="1">
          <mxGeometry x="357.5" y="792" width="80" height="80" as="geometry" />
        </mxCell>
        <mxCell id="vvqf3th2D5cChJPoauMC-34" style="edgeStyle=orthogonalEdgeStyle;rounded=0;orthogonalLoop=1;jettySize=auto;html=1;" parent="1" source="vvqf3th2D5cChJPoauMC-31" edge="1">
          <mxGeometry relative="1" as="geometry">
            <mxPoint x="397.5" y="1002" as="targetPoint" />
            <Array as="points">
              <mxPoint x="282.5" y="1002" />
            </Array>
          </mxGeometry>
        </mxCell>
        <mxCell id="vvqf3th2D5cChJPoauMC-31" value="if (n == 0)" style="rounded=0;whiteSpace=wrap;html=1;" parent="1" vertex="1">
          <mxGeometry x="222.5" y="892" width="120" height="60" as="geometry" />
        </mxCell>
        <mxCell id="vvqf3th2D5cChJPoauMC-35" style="edgeStyle=orthogonalEdgeStyle;rounded=0;orthogonalLoop=1;jettySize=auto;html=1;" parent="1" source="vvqf3th2D5cChJPoauMC-33" edge="1">
          <mxGeometry relative="1" as="geometry">
            <mxPoint x="397.5" y="1002" as="targetPoint" />
            <Array as="points">
              <mxPoint x="572.5" y="1002" />
            </Array>
          </mxGeometry>
        </mxCell>
        <mxCell id="vvqf3th2D5cChJPoauMC-33" value="return (cos(n * x) / factorial(n)) + s(n - 1, x);" style="rounded=0;whiteSpace=wrap;html=1;" parent="1" vertex="1">
          <mxGeometry x="447.5" y="892" width="250" height="60" as="geometry" />
        </mxCell>
        <mxCell id="vvqf3th2D5cChJPoauMC-36" value="" style="endArrow=classic;html=1;rounded=0;" parent="1" target="vvqf3th2D5cChJPoauMC-37" edge="1">
          <mxGeometry width="50" height="50" relative="1" as="geometry">
            <mxPoint x="397.5" y="1002" as="sourcePoint" />
            <mxPoint x="397.5" y="1082" as="targetPoint" />
          </mxGeometry>
        </mxCell>
        <mxCell id="vvqf3th2D5cChJPoauMC-38" style="edgeStyle=orthogonalEdgeStyle;rounded=0;orthogonalLoop=1;jettySize=auto;html=1;" parent="1" source="vvqf3th2D5cChJPoauMC-37" target="vvqf3th2D5cChJPoauMC-39" edge="1">
          <mxGeometry relative="1" as="geometry">
            <mxPoint x="397.5" y="1142" as="targetPoint" />
          </mxGeometry>
        </mxCell>
        <mxCell id="vvqf3th2D5cChJPoauMC-37" value="&lt;div&gt;int main()&lt;/div&gt;" style="shape=process;whiteSpace=wrap;html=1;backgroundOutline=1;" parent="1" vertex="1">
          <mxGeometry x="337.5" y="1042" width="120" height="60" as="geometry" />
        </mxCell>
        <mxCell id="vvqf3th2D5cChJPoauMC-40" style="edgeStyle=orthogonalEdgeStyle;rounded=0;orthogonalLoop=1;jettySize=auto;html=1;" parent="1" source="vvqf3th2D5cChJPoauMC-39" target="vvqf3th2D5cChJPoauMC-41" edge="1">
          <mxGeometry relative="1" as="geometry">
            <mxPoint x="397.5" y="1222" as="targetPoint" />
          </mxGeometry>
        </mxCell>
        <mxCell id="vvqf3th2D5cChJPoauMC-39" value="setlocale(LC_ALL, &quot;RU&quot;);" style="rounded=0;whiteSpace=wrap;html=1;" parent="1" vertex="1">
          <mxGeometry x="337.5" y="1122" width="120" height="60" as="geometry" />
        </mxCell>
        <mxCell id="vvqf3th2D5cChJPoauMC-42" style="edgeStyle=orthogonalEdgeStyle;rounded=0;orthogonalLoop=1;jettySize=auto;html=1;" parent="1" source="vvqf3th2D5cChJPoauMC-41" target="vvqf3th2D5cChJPoauMC-43" edge="1">
          <mxGeometry relative="1" as="geometry">
            <mxPoint x="397.5" y="1292" as="targetPoint" />
          </mxGeometry>
        </mxCell>
        <mxCell id="vvqf3th2D5cChJPoauMC-41" value="int n;" style="rounded=0;whiteSpace=wrap;html=1;" parent="1" vertex="1">
          <mxGeometry x="337.5" y="1202" width="120" height="60" as="geometry" />
        </mxCell>
        <mxCell id="vvqf3th2D5cChJPoauMC-44" style="edgeStyle=orthogonalEdgeStyle;rounded=0;orthogonalLoop=1;jettySize=auto;html=1;" parent="1" source="vvqf3th2D5cChJPoauMC-43" target="vvqf3th2D5cChJPoauMC-45" edge="1">
          <mxGeometry relative="1" as="geometry">
            <mxPoint x="397.5" y="1382" as="targetPoint" />
          </mxGeometry>
        </mxCell>
        <mxCell id="vvqf3th2D5cChJPoauMC-43" value="float x;" style="rounded=0;whiteSpace=wrap;html=1;" parent="1" vertex="1">
          <mxGeometry x="337.5" y="1282" width="120" height="60" as="geometry" />
        </mxCell>
        <mxCell id="vvqf3th2D5cChJPoauMC-46" style="edgeStyle=orthogonalEdgeStyle;rounded=0;orthogonalLoop=1;jettySize=auto;html=1;" parent="1" source="vvqf3th2D5cChJPoauMC-45" target="vvqf3th2D5cChJPoauMC-47" edge="1">
          <mxGeometry relative="1" as="geometry">
            <mxPoint x="397.5" y="1442" as="targetPoint" />
          </mxGeometry>
        </mxCell>
        <mxCell id="vvqf3th2D5cChJPoauMC-45" value="cout &amp;lt;&amp;lt; &quot;Поочерёдно введите n и x для нахождения S = 1 + (cos(x) / 1!) + ... + (cos(n*x) / n!) с помощью рекурсии: &quot; &amp;lt;&amp;lt; endl;" style="shape=parallelogram;perimeter=parallelogramPerimeter;whiteSpace=wrap;html=1;fixedSize=1;" parent="1" vertex="1">
          <mxGeometry x="157.5" y="1362" width="480" height="60" as="geometry" />
        </mxCell>
        <mxCell id="vvqf3th2D5cChJPoauMC-48" style="edgeStyle=orthogonalEdgeStyle;rounded=0;orthogonalLoop=1;jettySize=auto;html=1;" parent="1" source="vvqf3th2D5cChJPoauMC-47" target="vvqf3th2D5cChJPoauMC-49" edge="1">
          <mxGeometry relative="1" as="geometry">
            <mxPoint x="397.5" y="1532" as="targetPoint" />
          </mxGeometry>
        </mxCell>
        <mxCell id="vvqf3th2D5cChJPoauMC-47" value="cin &amp;gt;&amp;gt; n &amp;gt;&amp;gt; x;" style="shape=parallelogram;perimeter=parallelogramPerimeter;whiteSpace=wrap;html=1;fixedSize=1;" parent="1" vertex="1">
          <mxGeometry x="337.5" y="1442" width="120" height="60" as="geometry" />
        </mxCell>
        <mxCell id="vvqf3th2D5cChJPoauMC-50" style="edgeStyle=orthogonalEdgeStyle;rounded=0;orthogonalLoop=1;jettySize=auto;html=1;" parent="1" source="vvqf3th2D5cChJPoauMC-49" target="vvqf3th2D5cChJPoauMC-51" edge="1">
          <mxGeometry relative="1" as="geometry">
            <mxPoint x="277.5" y="1612" as="targetPoint" />
          </mxGeometry>
        </mxCell>
        <mxCell id="vvqf3th2D5cChJPoauMC-52" style="edgeStyle=orthogonalEdgeStyle;rounded=0;orthogonalLoop=1;jettySize=auto;html=1;" parent="1" source="vvqf3th2D5cChJPoauMC-49" target="vvqf3th2D5cChJPoauMC-53" edge="1">
          <mxGeometry relative="1" as="geometry">
            <mxPoint x="637.5" y="1652" as="targetPoint" />
          </mxGeometry>
        </mxCell>
        <mxCell id="vvqf3th2D5cChJPoauMC-49" value="if (n &amp;lt; 0)" style="rhombus;whiteSpace=wrap;html=1;" parent="1" vertex="1">
          <mxGeometry x="357.5" y="1522" width="80" height="80" as="geometry" />
        </mxCell>
        <mxCell id="vvqf3th2D5cChJPoauMC-55" style="edgeStyle=orthogonalEdgeStyle;rounded=0;orthogonalLoop=1;jettySize=auto;html=1;" parent="1" source="vvqf3th2D5cChJPoauMC-51" edge="1">
          <mxGeometry relative="1" as="geometry">
            <mxPoint x="397.5" y="1772" as="targetPoint" />
            <Array as="points">
              <mxPoint x="177.5" y="1772" />
            </Array>
          </mxGeometry>
        </mxCell>
        <mxCell id="vvqf3th2D5cChJPoauMC-51" value="cout &amp;lt;&amp;lt; &quot;Некорректно введён параметр n, факториал можно определеить только если n &amp;gt;= 0&quot;;" style="shape=parallelogram;perimeter=parallelogramPerimeter;whiteSpace=wrap;html=1;fixedSize=1;" parent="1" vertex="1">
          <mxGeometry x="12.5" y="1632" width="330" height="60" as="geometry" />
        </mxCell>
        <mxCell id="vvqf3th2D5cChJPoauMC-54" style="edgeStyle=orthogonalEdgeStyle;rounded=0;orthogonalLoop=1;jettySize=auto;html=1;" parent="1" source="vvqf3th2D5cChJPoauMC-53" edge="1">
          <mxGeometry relative="1" as="geometry">
            <mxPoint x="397.5" y="1772" as="targetPoint" />
            <Array as="points">
              <mxPoint x="647.5" y="1772" />
            </Array>
          </mxGeometry>
        </mxCell>
        <mxCell id="vvqf3th2D5cChJPoauMC-53" value="cout &amp;lt;&amp;lt; &quot;После завершения работы функций с рекурсией S = &quot; &amp;lt;&amp;lt; 1 + s(n, x);" style="shape=parallelogram;perimeter=parallelogramPerimeter;whiteSpace=wrap;html=1;fixedSize=1;" parent="1" vertex="1">
          <mxGeometry x="487.5" y="1632" width="320" height="60" as="geometry" />
        </mxCell>
        <mxCell id="vvqf3th2D5cChJPoauMC-57" value="" style="endArrow=classic;html=1;rounded=0;" parent="1" target="vvqf3th2D5cChJPoauMC-58" edge="1">
          <mxGeometry width="50" height="50" relative="1" as="geometry">
            <mxPoint x="397.5" y="1772" as="sourcePoint" />
            <mxPoint x="397.5" y="1842" as="targetPoint" />
          </mxGeometry>
        </mxCell>
        <mxCell id="vvqf3th2D5cChJPoauMC-59" style="edgeStyle=orthogonalEdgeStyle;rounded=0;orthogonalLoop=1;jettySize=auto;html=1;" parent="1" source="vvqf3th2D5cChJPoauMC-58" target="vvqf3th2D5cChJPoauMC-61" edge="1">
          <mxGeometry relative="1" as="geometry">
            <mxPoint x="397.5" y="1892" as="targetPoint" />
          </mxGeometry>
        </mxCell>
        <mxCell id="vvqf3th2D5cChJPoauMC-58" value="return 0;" style="rounded=0;whiteSpace=wrap;html=1;" parent="1" vertex="1">
          <mxGeometry x="337.5" y="1802" width="120" height="60" as="geometry" />
        </mxCell>
        <mxCell id="vvqf3th2D5cChJPoauMC-61" value="Конец" style="ellipse;whiteSpace=wrap;html=1;aspect=fixed;" parent="1" vertex="1">
          <mxGeometry x="357.5" y="1892" width="80" height="80" as="geometry" />
        </mxCell>
        <mxCell id="vvqf3th2D5cChJPoauMC-63" value="1" style="text;html=1;align=center;verticalAlign=middle;resizable=0;points=[];autosize=1;strokeColor=none;fillColor=none;" parent="1" vertex="1">
          <mxGeometry x="162.5" y="1530" width="30" height="30" as="geometry" />
        </mxCell>
        <mxCell id="vvqf3th2D5cChJPoauMC-64" value="0" style="text;html=1;align=center;verticalAlign=middle;resizable=0;points=[];autosize=1;strokeColor=none;fillColor=none;" parent="1" vertex="1">
          <mxGeometry x="632.5" y="1530" width="30" height="30" as="geometry" />
        </mxCell>
        <mxCell id="vvqf3th2D5cChJPoauMC-65" value="{" style="text;html=1;align=center;verticalAlign=middle;resizable=0;points=[];autosize=1;strokeColor=none;fillColor=none;" parent="1" vertex="1">
          <mxGeometry x="152.5" y="1600" width="30" height="30" as="geometry" />
        </mxCell>
        <mxCell id="vvqf3th2D5cChJPoauMC-66" value="{" style="text;html=1;align=center;verticalAlign=middle;resizable=0;points=[];autosize=1;strokeColor=none;fillColor=none;" parent="1" vertex="1">
          <mxGeometry x="622.5" y="1600" width="30" height="30" as="geometry" />
        </mxCell>
        <mxCell id="vvqf3th2D5cChJPoauMC-67" value="}" style="text;html=1;align=center;verticalAlign=middle;resizable=0;points=[];autosize=1;strokeColor=none;fillColor=none;" parent="1" vertex="1">
          <mxGeometry x="482.5" y="1740" width="30" height="30" as="geometry" />
        </mxCell>
        <mxCell id="vvqf3th2D5cChJPoauMC-68" value="}" style="text;html=1;align=center;verticalAlign=middle;resizable=0;points=[];autosize=1;strokeColor=none;fillColor=none;" parent="1" vertex="1">
          <mxGeometry x="272.5" y="1740" width="30" height="30" as="geometry" />
        </mxCell>
        <mxCell id="vvqf3th2D5cChJPoauMC-69" value="{" style="text;html=1;align=center;verticalAlign=middle;resizable=0;points=[];autosize=1;strokeColor=none;fillColor=none;" parent="1" vertex="1">
          <mxGeometry x="372.5" y="1100" width="30" height="30" as="geometry" />
        </mxCell>
        <mxCell id="vvqf3th2D5cChJPoauMC-70" value="}" style="text;html=1;align=center;verticalAlign=middle;resizable=0;points=[];autosize=1;strokeColor=none;fillColor=none;" parent="1" vertex="1">
          <mxGeometry x="402.5" y="1860" width="30" height="30" as="geometry" />
        </mxCell>
        <mxCell id="vvqf3th2D5cChJPoauMC-71" value="}" style="text;html=1;align=center;verticalAlign=middle;resizable=0;points=[];autosize=1;strokeColor=none;fillColor=none;" parent="1" vertex="1">
          <mxGeometry x="392.5" y="1010" width="30" height="30" as="geometry" />
        </mxCell>
        <mxCell id="vvqf3th2D5cChJPoauMC-72" value="{" style="text;html=1;align=center;verticalAlign=middle;resizable=0;points=[];autosize=1;strokeColor=none;fillColor=none;" parent="1" vertex="1">
          <mxGeometry x="372.5" y="770" width="30" height="30" as="geometry" />
        </mxCell>
        <mxCell id="vvqf3th2D5cChJPoauMC-73" value="}" style="text;html=1;align=center;verticalAlign=middle;resizable=0;points=[];autosize=1;strokeColor=none;fillColor=none;" parent="1" vertex="1">
          <mxGeometry x="402.5" y="680" width="30" height="30" as="geometry" />
        </mxCell>
        <mxCell id="so6eHlexY9PvJ19jEkvu-2" style="edgeStyle=orthogonalEdgeStyle;rounded=0;orthogonalLoop=1;jettySize=auto;html=1;" edge="1" parent="1" source="so6eHlexY9PvJ19jEkvu-1" target="so6eHlexY9PvJ19jEkvu-3">
          <mxGeometry relative="1" as="geometry">
            <mxPoint x="410" y="400" as="targetPoint" />
          </mxGeometry>
        </mxCell>
        <mxCell id="so6eHlexY9PvJ19jEkvu-1" value="int res = 1;" style="rounded=0;whiteSpace=wrap;html=1;" vertex="1" parent="1">
          <mxGeometry x="350" y="318" width="120" height="60" as="geometry" />
        </mxCell>
        <mxCell id="so6eHlexY9PvJ19jEkvu-4" style="edgeStyle=orthogonalEdgeStyle;rounded=0;orthogonalLoop=1;jettySize=auto;html=1;" edge="1" parent="1" source="so6eHlexY9PvJ19jEkvu-3" target="so6eHlexY9PvJ19jEkvu-5">
          <mxGeometry relative="1" as="geometry">
            <mxPoint x="410" y="520" as="targetPoint" />
          </mxGeometry>
        </mxCell>
        <mxCell id="so6eHlexY9PvJ19jEkvu-7" style="edgeStyle=orthogonalEdgeStyle;rounded=0;orthogonalLoop=1;jettySize=auto;html=1;" edge="1" parent="1" source="so6eHlexY9PvJ19jEkvu-3" target="so6eHlexY9PvJ19jEkvu-8">
          <mxGeometry relative="1" as="geometry">
            <mxPoint x="560" y="540" as="targetPoint" />
          </mxGeometry>
        </mxCell>
        <mxCell id="so6eHlexY9PvJ19jEkvu-3" value="for (int i = 1; i &amp;lt;= n; i++)" style="shape=hexagon;perimeter=hexagonPerimeter2;whiteSpace=wrap;html=1;fixedSize=1;" vertex="1" parent="1">
          <mxGeometry x="335" y="400" width="150" height="80" as="geometry" />
        </mxCell>
        <mxCell id="so6eHlexY9PvJ19jEkvu-6" style="edgeStyle=orthogonalEdgeStyle;rounded=0;orthogonalLoop=1;jettySize=auto;html=1;entryX=0;entryY=0.5;entryDx=0;entryDy=0;" edge="1" parent="1" source="so6eHlexY9PvJ19jEkvu-5" target="so6eHlexY9PvJ19jEkvu-3">
          <mxGeometry relative="1" as="geometry">
            <mxPoint x="280" y="440" as="targetPoint" />
            <Array as="points">
              <mxPoint x="410" y="580" />
              <mxPoint x="281" y="580" />
              <mxPoint x="281" y="440" />
            </Array>
          </mxGeometry>
        </mxCell>
        <mxCell id="so6eHlexY9PvJ19jEkvu-5" value="res = res * i;" style="rounded=0;whiteSpace=wrap;html=1;" vertex="1" parent="1">
          <mxGeometry x="350" y="500" width="120" height="60" as="geometry" />
        </mxCell>
        <mxCell id="so6eHlexY9PvJ19jEkvu-18" style="edgeStyle=orthogonalEdgeStyle;rounded=0;orthogonalLoop=1;jettySize=auto;html=1;entryX=0.5;entryY=0;entryDx=0;entryDy=0;" edge="1" parent="1" source="so6eHlexY9PvJ19jEkvu-8" target="vvqf3th2D5cChJPoauMC-27">
          <mxGeometry relative="1" as="geometry">
            <Array as="points">
              <mxPoint x="578" y="600" />
              <mxPoint x="398" y="600" />
            </Array>
          </mxGeometry>
        </mxCell>
        <mxCell id="so6eHlexY9PvJ19jEkvu-8" value="return res;" style="rounded=0;whiteSpace=wrap;html=1;" vertex="1" parent="1">
          <mxGeometry x="517.5" y="500" width="120" height="60" as="geometry" />
        </mxCell>
        <mxCell id="so6eHlexY9PvJ19jEkvu-10" value="{" style="text;html=1;align=center;verticalAlign=middle;resizable=0;points=[];autosize=1;strokeColor=none;fillColor=none;" vertex="1" parent="1">
          <mxGeometry x="385" y="478" width="30" height="30" as="geometry" />
        </mxCell>
        <mxCell id="so6eHlexY9PvJ19jEkvu-11" value="1" style="text;html=1;align=center;verticalAlign=middle;resizable=0;points=[];autosize=1;strokeColor=none;fillColor=none;" vertex="1" parent="1">
          <mxGeometry x="415" y="478" width="30" height="30" as="geometry" />
        </mxCell>
        <mxCell id="so6eHlexY9PvJ19jEkvu-12" value="0" style="text;html=1;align=center;verticalAlign=middle;resizable=0;points=[];autosize=1;strokeColor=none;fillColor=none;" vertex="1" parent="1">
          <mxGeometry x="515" y="418" width="30" height="30" as="geometry" />
        </mxCell>
        <mxCell id="so6eHlexY9PvJ19jEkvu-13" value="}" style="text;html=1;align=center;verticalAlign=middle;resizable=0;points=[];autosize=1;strokeColor=none;fillColor=none;" vertex="1" parent="1">
          <mxGeometry x="315" y="558" width="30" height="30" as="geometry" />
        </mxCell>
      </root>
    </mxGraphModel>
  </diagram>
</mxfile>
